<?xml version="1.0" encoding="utf-8" standalone="no"?>
<!DOCTYPE svg PUBLIC "-//W3C//DTD SVG 1.1//EN"
  "http://www.w3.org/Graphics/SVG/1.1/DTD/svg11.dtd">
<svg xmlns:xlink="http://www.w3.org/1999/xlink" width="357.12pt" height="243.145532pt" viewBox="0 0 357.12 243.145532" xmlns="http://www.w3.org/2000/svg" version="1.1">
 <metadata>
  <rdf:RDF xmlns:dc="http://purl.org/dc/elements/1.1/" xmlns:cc="http://creativecommons.org/ns#" xmlns:rdf="http://www.w3.org/1999/02/22-rdf-syntax-ns#">
   <cc:Work>
    <dc:type rdf:resource="http://purl.org/dc/dcmitype/StillImage"/>
    <dc:date>2024-08-10T12:47:43.033604</dc:date>
    <dc:format>image/svg+xml</dc:format>
    <dc:creator>
     <cc:Agent>
      <dc:title>Matplotlib v3.9.1.post1, https://matplotlib.org/</dc:title>
     </cc:Agent>
    </dc:creator>
   </cc:Work>
  </rdf:RDF>
 </metadata>
 <defs>
  <style type="text/css">*{stroke-linejoin: round; stroke-linecap: butt}</style>
 </defs>
 <g id="figure_1">
  <g id="patch_1">
   <path d="M 0 243.145532 
L 357.12 243.145532 
L 357.12 0 
L 0 0 
z
" style="fill: #ffffff"/>
  </g>
  <g id="axes_1">
   <g id="patch_2">
    <path d="M 75.982979 163.363404 
L 75.982979 205.154043 
L 265.940426 205.154043 
L 265.940426 163.363404 
z
" clip-path="url(#p589d41ba6f)" style="fill: #ff0000; opacity: 0.3"/>
   </g>
   <g id="line2d_1">
    <path d="M 26.594043 26.594043 
L 66.485106 214.651915 
L 121.572766 235.547234 
" clip-path="url(#p589d41ba6f)" style="fill: none; stroke-dasharray: 7.4,3.2; stroke-dashoffset: 0; stroke: #000000; stroke-width: 2"/>
    <defs>
     <path id="mf267fcc9df" d="M 0 3 
C 0.795609 3 1.55874 2.683901 2.12132 2.12132 
C 2.683901 1.55874 3 0.795609 3 0 
C 3 -0.795609 2.683901 -1.55874 2.12132 -2.12132 
C 1.55874 -2.683901 0.795609 -3 0 -3 
C -0.795609 -3 -1.55874 -2.683901 -2.12132 -2.12132 
C -2.683901 -1.55874 -3 -0.795609 -3 0 
C -3 0.795609 -2.683901 1.55874 -2.12132 2.12132 
C -1.55874 2.683901 -0.795609 3 0 3 
z
" style="stroke: #000000"/>
    </defs>
    <g clip-path="url(#p589d41ba6f)">
     <use xlink:href="#mf267fcc9df" x="26.594043" y="26.594043" style="stroke: #000000"/>
     <use xlink:href="#mf267fcc9df" x="66.485106" y="214.651915" style="stroke: #000000"/>
     <use xlink:href="#mf267fcc9df" x="121.572766" y="235.547234" style="stroke: #000000"/>
    </g>
   </g>
   <g id="line2d_2">
    <path d="M 330.525957 26.594043 
L 275.438298 214.651915 
L 159.564255 235.547234 
" clip-path="url(#p589d41ba6f)" style="fill: none; stroke-dasharray: 7.4,3.2; stroke-dashoffset: 0; stroke: #000000; stroke-width: 2"/>
    <g clip-path="url(#p589d41ba6f)">
     <use xlink:href="#mf267fcc9df" x="330.525957" y="26.594043" style="stroke: #000000"/>
     <use xlink:href="#mf267fcc9df" x="275.438298" y="214.651915" style="stroke: #000000"/>
     <use xlink:href="#mf267fcc9df" x="159.564255" y="235.547234" style="stroke: #000000"/>
    </g>
   </g>
  </g>
 </g>
 <defs>
  <clipPath id="p589d41ba6f">
   <rect x="0" y="-0" width="357.12" height="243.145532"/>
  </clipPath>
 </defs>
</svg>
