<?xml version="1.0" encoding="utf-8" standalone="no"?>
<!DOCTYPE svg PUBLIC "-//W3C//DTD SVG 1.1//EN"
  "http://www.w3.org/Graphics/SVG/1.1/DTD/svg11.dtd">
<svg xmlns:xlink="http://www.w3.org/1999/xlink" width="266.112pt" height="266.112pt" viewBox="0 0 266.112 266.112" xmlns="http://www.w3.org/2000/svg" version="1.1">
 <metadata>
  <rdf:RDF xmlns:dc="http://purl.org/dc/elements/1.1/" xmlns:cc="http://creativecommons.org/ns#" xmlns:rdf="http://www.w3.org/1999/02/22-rdf-syntax-ns#">
   <cc:Work>
    <dc:type rdf:resource="http://purl.org/dc/dcmitype/StillImage"/>
    <dc:date>2024-08-10T07:57:38.821664</dc:date>
    <dc:format>image/svg+xml</dc:format>
    <dc:creator>
     <cc:Agent>
      <dc:title>Matplotlib v3.9.1.post1, https://matplotlib.org/</dc:title>
     </cc:Agent>
    </dc:creator>
   </cc:Work>
  </rdf:RDF>
 </metadata>
 <defs>
  <style type="text/css">*{stroke-linejoin: round; stroke-linecap: butt}</style>
 </defs>
 <g id="figure_1">
  <g id="patch_1">
   <path d="M 0 266.112 
L 266.112 266.112 
L 266.112 0 
L 0 0 
z
" style="fill: #ffffff"/>
  </g>
  <g id="axes_1">
   <g id="patch_2">
    <path d="M 174.636 174.636 
L 91.476 174.636 
L 91.476 91.476 
L 174.636 91.476 
z
" clip-path="url(#p32fe8bd233)" style="fill: #ff0000; opacity: 0.3"/>
   </g>
   <g id="line2d_1">
    <path d="M 91.476 58.212 
L 76.179957 76.744827 
L 87.318 180.282395 
L 91.476 207.9 
" clip-path="url(#p32fe8bd233)" style="fill: none; stroke-dasharray: 7.4,3.2; stroke-dashoffset: 0; stroke: #000000; stroke-width: 2"/>
    <defs>
     <path id="mc374eacf55" d="M 0 3 
C 0.795609 3 1.55874 2.683901 2.12132 2.12132 
C 2.683901 1.55874 3 0.795609 3 0 
C 3 -0.795609 2.683901 -1.55874 2.12132 -2.12132 
C 1.55874 -2.683901 0.795609 -3 0 -3 
C -0.795609 -3 -1.55874 -2.683901 -2.12132 -2.12132 
C -2.683901 -1.55874 -3 -0.795609 -3 0 
C -3 0.795609 -2.683901 1.55874 -2.12132 2.12132 
C -1.55874 2.683901 -0.795609 3 0 3 
z
" style="stroke: #000000"/>
    </defs>
    <g clip-path="url(#p32fe8bd233)">
     <use xlink:href="#mc374eacf55" x="91.476" y="58.212" style="stroke: #000000"/>
     <use xlink:href="#mc374eacf55" x="76.179957" y="76.744827" style="stroke: #000000"/>
     <use xlink:href="#mc374eacf55" x="87.318" y="180.282395" style="stroke: #000000"/>
     <use xlink:href="#mc374eacf55" x="91.476" y="207.9" style="stroke: #000000"/>
    </g>
   </g>
   <g id="line2d_2">
    <path d="M 133.056 58.212 
L 163.637391 78.997842 
L 178.794 87.318 
L 178.794 178.794 
L 133.056 207.9 
" clip-path="url(#p32fe8bd233)" style="fill: none; stroke-dasharray: 7.4,3.2; stroke-dashoffset: 0; stroke: #000000; stroke-width: 2"/>
    <g clip-path="url(#p32fe8bd233)">
     <use xlink:href="#mc374eacf55" x="133.056" y="58.212" style="stroke: #000000"/>
     <use xlink:href="#mc374eacf55" x="163.637391" y="78.997842" style="stroke: #000000"/>
     <use xlink:href="#mc374eacf55" x="178.794" y="87.318" style="stroke: #000000"/>
     <use xlink:href="#mc374eacf55" x="178.794" y="178.794" style="stroke: #000000"/>
     <use xlink:href="#mc374eacf55" x="133.056" y="207.9" style="stroke: #000000"/>
    </g>
   </g>
   <g id="line2d_3">
    <path d="M 174.636 58.212 
L 247.812433 70.109481 
L 203.035735 198.177747 
L 174.636 207.9 
" clip-path="url(#p32fe8bd233)" style="fill: none; stroke-dasharray: 7.4,3.2; stroke-dashoffset: 0; stroke: #000000; stroke-width: 2"/>
    <g clip-path="url(#p32fe8bd233)">
     <use xlink:href="#mc374eacf55" x="174.636" y="58.212" style="stroke: #000000"/>
     <use xlink:href="#mc374eacf55" x="247.812433" y="70.109481" style="stroke: #000000"/>
     <use xlink:href="#mc374eacf55" x="203.035735" y="198.177747" style="stroke: #000000"/>
     <use xlink:href="#mc374eacf55" x="174.636" y="207.9" style="stroke: #000000"/>
    </g>
   </g>
   <g id="line2d_4">
    <path d="M 91.476 207.9 
L 43.383792 178.794 
L 34.105205 87.318 
L 91.476 58.212 
" clip-path="url(#p32fe8bd233)" style="fill: none; stroke-dasharray: 7.4,3.2; stroke-dashoffset: 0; stroke: #000000; stroke-width: 2"/>
    <g clip-path="url(#p32fe8bd233)">
     <use xlink:href="#mc374eacf55" x="91.476" y="207.9" style="stroke: #000000"/>
     <use xlink:href="#mc374eacf55" x="43.383792" y="178.794" style="stroke: #000000"/>
     <use xlink:href="#mc374eacf55" x="34.105205" y="87.318" style="stroke: #000000"/>
     <use xlink:href="#mc374eacf55" x="91.476" y="58.212" style="stroke: #000000"/>
    </g>
   </g>
   <g id="line2d_5">
    <path d="M 133.056 207.9 
L 128.96267 199.579842 
L 87.318 178.794 
L 87.318 87.318 
L 133.056 58.212 
" clip-path="url(#p32fe8bd233)" style="fill: none; stroke-dasharray: 7.4,3.2; stroke-dashoffset: 0; stroke: #000000; stroke-width: 2"/>
    <g clip-path="url(#p32fe8bd233)">
     <use xlink:href="#mc374eacf55" x="133.056" y="207.9" style="stroke: #000000"/>
     <use xlink:href="#mc374eacf55" x="128.96267" y="199.579842" style="stroke: #000000"/>
     <use xlink:href="#mc374eacf55" x="87.318" y="178.794" style="stroke: #000000"/>
     <use xlink:href="#mc374eacf55" x="87.318" y="87.318" style="stroke: #000000"/>
     <use xlink:href="#mc374eacf55" x="133.056" y="58.212" style="stroke: #000000"/>
    </g>
   </g>
   <g id="line2d_6">
    <path d="M 174.636 207.9 
L 178.794 207.9 
L 178.794 87.318 
L 174.636 58.212 
" clip-path="url(#p32fe8bd233)" style="fill: none; stroke-dasharray: 7.4,3.2; stroke-dashoffset: 0; stroke: #000000; stroke-width: 2"/>
    <g clip-path="url(#p32fe8bd233)">
     <use xlink:href="#mc374eacf55" x="174.636" y="207.9" style="stroke: #000000"/>
     <use xlink:href="#mc374eacf55" x="178.794" y="207.9" style="stroke: #000000"/>
     <use xlink:href="#mc374eacf55" x="178.794" y="87.318" style="stroke: #000000"/>
     <use xlink:href="#mc374eacf55" x="174.636" y="58.212" style="stroke: #000000"/>
    </g>
   </g>
   <g id="line2d_7">
    <path d="M 58.212 174.636 
L 61.538689 257.796 
L 201.661913 233.038529 
L 207.9 174.636 
" clip-path="url(#p32fe8bd233)" style="fill: none; stroke-dasharray: 7.4,3.2; stroke-dashoffset: 0; stroke: #000000; stroke-width: 2"/>
    <g clip-path="url(#p32fe8bd233)">
     <use xlink:href="#mc374eacf55" x="58.212" y="174.636" style="stroke: #000000"/>
     <use xlink:href="#mc374eacf55" x="61.538689" y="257.796" style="stroke: #000000"/>
     <use xlink:href="#mc374eacf55" x="201.661913" y="233.038529" style="stroke: #000000"/>
     <use xlink:href="#mc374eacf55" x="207.9" y="174.636" style="stroke: #000000"/>
    </g>
   </g>
   <g id="line2d_8">
    <path d="M 58.212 133.056 
L 81.257756 217.764378 
L 178.794 216.220158 
L 207.9 133.056 
" clip-path="url(#p32fe8bd233)" style="fill: none; stroke-dasharray: 7.4,3.2; stroke-dashoffset: 0; stroke: #000000; stroke-width: 2"/>
    <g clip-path="url(#p32fe8bd233)">
     <use xlink:href="#mc374eacf55" x="58.212" y="133.056" style="stroke: #000000"/>
     <use xlink:href="#mc374eacf55" x="81.257756" y="217.764378" style="stroke: #000000"/>
     <use xlink:href="#mc374eacf55" x="178.794" y="216.220158" style="stroke: #000000"/>
     <use xlink:href="#mc374eacf55" x="207.9" y="133.056" style="stroke: #000000"/>
    </g>
   </g>
   <g id="line2d_9">
    <path d="M 58.212 91.476 
L 87.318 40.385876 
L 216.802345 40.385876 
L 207.9 91.476 
" clip-path="url(#p32fe8bd233)" style="fill: none; stroke-dasharray: 7.4,3.2; stroke-dashoffset: 0; stroke: #000000; stroke-width: 2"/>
    <g clip-path="url(#p32fe8bd233)">
     <use xlink:href="#mc374eacf55" x="58.212" y="91.476" style="stroke: #000000"/>
     <use xlink:href="#mc374eacf55" x="87.318" y="40.385876" style="stroke: #000000"/>
     <use xlink:href="#mc374eacf55" x="216.802345" y="40.385876" style="stroke: #000000"/>
     <use xlink:href="#mc374eacf55" x="207.9" y="91.476" style="stroke: #000000"/>
    </g>
   </g>
   <g id="line2d_10">
    <path d="M 207.9 174.636 
L 187.114158 189.643429 
L 87.318 189.643429 
L 58.212 174.636 
" clip-path="url(#p32fe8bd233)" style="fill: none; stroke-dasharray: 7.4,3.2; stroke-dashoffset: 0; stroke: #000000; stroke-width: 2"/>
    <g clip-path="url(#p32fe8bd233)">
     <use xlink:href="#mc374eacf55" x="207.9" y="174.636" style="stroke: #000000"/>
     <use xlink:href="#mc374eacf55" x="187.114158" y="189.643429" style="stroke: #000000"/>
     <use xlink:href="#mc374eacf55" x="87.318" y="189.643429" style="stroke: #000000"/>
     <use xlink:href="#mc374eacf55" x="58.212" y="174.636" style="stroke: #000000"/>
    </g>
   </g>
   <g id="line2d_11">
    <path d="M 207.9 133.056 
L 178.794 87.318 
L 87.318 87.318 
L 58.212 133.056 
" clip-path="url(#p32fe8bd233)" style="fill: none; stroke-dasharray: 7.4,3.2; stroke-dashoffset: 0; stroke: #000000; stroke-width: 2"/>
    <g clip-path="url(#p32fe8bd233)">
     <use xlink:href="#mc374eacf55" x="207.9" y="133.056" style="stroke: #000000"/>
     <use xlink:href="#mc374eacf55" x="178.794" y="87.318" style="stroke: #000000"/>
     <use xlink:href="#mc374eacf55" x="87.318" y="87.318" style="stroke: #000000"/>
     <use xlink:href="#mc374eacf55" x="58.212" y="133.056" style="stroke: #000000"/>
    </g>
   </g>
   <g id="line2d_12">
    <path d="M 207.9 91.476 
L 178.794 78.429639 
L 87.060263 78.429639 
L 58.212 91.476 
" clip-path="url(#p32fe8bd233)" style="fill: none; stroke-dasharray: 7.4,3.2; stroke-dashoffset: 0; stroke: #000000; stroke-width: 2"/>
    <g clip-path="url(#p32fe8bd233)">
     <use xlink:href="#mc374eacf55" x="207.9" y="91.476" style="stroke: #000000"/>
     <use xlink:href="#mc374eacf55" x="178.794" y="78.429639" style="stroke: #000000"/>
     <use xlink:href="#mc374eacf55" x="87.060263" y="78.429639" style="stroke: #000000"/>
     <use xlink:href="#mc374eacf55" x="58.212" y="91.476" style="stroke: #000000"/>
    </g>
   </g>
  </g>
 </g>
 <defs>
  <clipPath id="p32fe8bd233">
   <rect x="0" y="-0" width="266.112" height="266.112"/>
  </clipPath>
 </defs>
</svg>
