<?xml version="1.0" encoding="utf-8" standalone="no"?>
<!DOCTYPE svg PUBLIC "-//W3C//DTD SVG 1.1//EN"
  "http://www.w3.org/Graphics/SVG/1.1/DTD/svg11.dtd">
<svg xmlns:xlink="http://www.w3.org/1999/xlink" width="266.112pt" height="266.112pt" viewBox="0 0 266.112 266.112" xmlns="http://www.w3.org/2000/svg" version="1.1">
 <metadata>
  <rdf:RDF xmlns:dc="http://purl.org/dc/elements/1.1/" xmlns:cc="http://creativecommons.org/ns#" xmlns:rdf="http://www.w3.org/1999/02/22-rdf-syntax-ns#">
   <cc:Work>
    <dc:type rdf:resource="http://purl.org/dc/dcmitype/StillImage"/>
    <dc:date>2024-08-10T07:53:46.296527</dc:date>
    <dc:format>image/svg+xml</dc:format>
    <dc:creator>
     <cc:Agent>
      <dc:title>Matplotlib v3.9.1.post1, https://matplotlib.org/</dc:title>
     </cc:Agent>
    </dc:creator>
   </cc:Work>
  </rdf:RDF>
 </metadata>
 <defs>
  <style type="text/css">*{stroke-linejoin: round; stroke-linecap: butt}</style>
 </defs>
 <g id="figure_1">
  <g id="patch_1">
   <path d="M 0 266.112 
L 266.112 266.112 
L 266.112 0 
L 0 0 
z
" style="fill: #ffffff"/>
  </g>
  <g id="axes_1">
   <g id="line2d_1">
    <path d="M 91.476 58.212 
L 91.476 207.9 
" clip-path="url(#p08a22d160f)" style="fill: none; stroke-dasharray: 7.4,3.2; stroke-dashoffset: 0; stroke: #000000; stroke-width: 2"/>
    <defs>
     <path id="m0ea653f03f" d="M 0 3 
C 0.795609 3 1.55874 2.683901 2.12132 2.12132 
C 2.683901 1.55874 3 0.795609 3 0 
C 3 -0.795609 2.683901 -1.55874 2.12132 -2.12132 
C 1.55874 -2.683901 0.795609 -3 0 -3 
C -0.795609 -3 -1.55874 -2.683901 -2.12132 -2.12132 
C -2.683901 -1.55874 -3 -0.795609 -3 0 
C -3 0.795609 -2.683901 1.55874 -2.12132 2.12132 
C -1.55874 2.683901 -0.795609 3 0 3 
z
" style="stroke: #000000"/>
    </defs>
    <g clip-path="url(#p08a22d160f)">
     <use xlink:href="#m0ea653f03f" x="91.476" y="58.212" style="stroke: #000000"/>
     <use xlink:href="#m0ea653f03f" x="91.476" y="207.9" style="stroke: #000000"/>
    </g>
   </g>
   <g id="line2d_2">
    <path d="M 133.056 58.212 
L 133.056 207.9 
" clip-path="url(#p08a22d160f)" style="fill: none; stroke-dasharray: 7.4,3.2; stroke-dashoffset: 0; stroke: #000000; stroke-width: 2"/>
    <g clip-path="url(#p08a22d160f)">
     <use xlink:href="#m0ea653f03f" x="133.056" y="58.212" style="stroke: #000000"/>
     <use xlink:href="#m0ea653f03f" x="133.056" y="207.9" style="stroke: #000000"/>
    </g>
   </g>
   <g id="line2d_3">
    <path d="M 174.636 58.212 
L 182.956158 66.532158 
L 182.956158 139.704642 
L 174.636 207.9 
" clip-path="url(#p08a22d160f)" style="fill: none; stroke-dasharray: 7.4,3.2; stroke-dashoffset: 0; stroke: #000000; stroke-width: 2"/>
    <g clip-path="url(#p08a22d160f)">
     <use xlink:href="#m0ea653f03f" x="174.636" y="58.212" style="stroke: #000000"/>
     <use xlink:href="#m0ea653f03f" x="182.956158" y="66.532158" style="stroke: #000000"/>
     <use xlink:href="#m0ea653f03f" x="182.956158" y="139.704642" style="stroke: #000000"/>
     <use xlink:href="#m0ea653f03f" x="174.636" y="207.9" style="stroke: #000000"/>
    </g>
   </g>
   <g id="line2d_4">
    <path d="M 91.476 207.9 
L 99.796158 199.579842 
L 99.796158 126.407358 
L 91.476 58.212 
" clip-path="url(#p08a22d160f)" style="fill: none; stroke-dasharray: 7.4,3.2; stroke-dashoffset: 0; stroke: #000000; stroke-width: 2"/>
    <g clip-path="url(#p08a22d160f)">
     <use xlink:href="#m0ea653f03f" x="91.476" y="207.9" style="stroke: #000000"/>
     <use xlink:href="#m0ea653f03f" x="99.796158" y="199.579842" style="stroke: #000000"/>
     <use xlink:href="#m0ea653f03f" x="99.796158" y="126.407358" style="stroke: #000000"/>
     <use xlink:href="#m0ea653f03f" x="91.476" y="58.212" style="stroke: #000000"/>
    </g>
   </g>
   <g id="line2d_5">
    <path d="M 133.056 207.9 
L 148.47208 156.925278 
L 141.376158 91.371583 
L 133.056 58.212 
" clip-path="url(#p08a22d160f)" style="fill: none; stroke-dasharray: 7.4,3.2; stroke-dashoffset: 0; stroke: #000000; stroke-width: 2"/>
    <g clip-path="url(#p08a22d160f)">
     <use xlink:href="#m0ea653f03f" x="133.056" y="207.9" style="stroke: #000000"/>
     <use xlink:href="#m0ea653f03f" x="148.47208" y="156.925278" style="stroke: #000000"/>
     <use xlink:href="#m0ea653f03f" x="141.376158" y="91.371583" style="stroke: #000000"/>
     <use xlink:href="#m0ea653f03f" x="133.056" y="58.212" style="stroke: #000000"/>
    </g>
   </g>
   <g id="line2d_6">
    <path d="M 174.636 207.9 
L 174.636 58.212 
" clip-path="url(#p08a22d160f)" style="fill: none; stroke-dasharray: 7.4,3.2; stroke-dashoffset: 0; stroke: #000000; stroke-width: 2"/>
    <g clip-path="url(#p08a22d160f)">
     <use xlink:href="#m0ea653f03f" x="174.636" y="207.9" style="stroke: #000000"/>
     <use xlink:href="#m0ea653f03f" x="174.636" y="58.212" style="stroke: #000000"/>
    </g>
   </g>
   <g id="line2d_7">
    <path d="M 58.212 174.636 
L 83.155842 174.636 
L 207.9 174.636 
" clip-path="url(#p08a22d160f)" style="fill: none; stroke-dasharray: 7.4,3.2; stroke-dashoffset: 0; stroke: #000000; stroke-width: 2"/>
    <g clip-path="url(#p08a22d160f)">
     <use xlink:href="#m0ea653f03f" x="58.212" y="174.636" style="stroke: #000000"/>
     <use xlink:href="#m0ea653f03f" x="83.155842" y="174.636" style="stroke: #000000"/>
     <use xlink:href="#m0ea653f03f" x="207.9" y="174.636" style="stroke: #000000"/>
    </g>
   </g>
   <g id="line2d_8">
    <path d="M 58.212 133.056 
L 83.155842 136.819408 
L 207.9 133.056 
" clip-path="url(#p08a22d160f)" style="fill: none; stroke-dasharray: 7.4,3.2; stroke-dashoffset: 0; stroke: #000000; stroke-width: 2"/>
    <g clip-path="url(#p08a22d160f)">
     <use xlink:href="#m0ea653f03f" x="58.212" y="133.056" style="stroke: #000000"/>
     <use xlink:href="#m0ea653f03f" x="83.155842" y="136.819408" style="stroke: #000000"/>
     <use xlink:href="#m0ea653f03f" x="207.9" y="133.056" style="stroke: #000000"/>
    </g>
   </g>
   <g id="line2d_9">
    <path d="M 58.212 91.476 
L 83.155842 109.82559 
L 207.9 91.476 
" clip-path="url(#p08a22d160f)" style="fill: none; stroke-dasharray: 7.4,3.2; stroke-dashoffset: 0; stroke: #000000; stroke-width: 2"/>
    <g clip-path="url(#p08a22d160f)">
     <use xlink:href="#m0ea653f03f" x="58.212" y="91.476" style="stroke: #000000"/>
     <use xlink:href="#m0ea653f03f" x="83.155842" y="109.82559" style="stroke: #000000"/>
     <use xlink:href="#m0ea653f03f" x="207.9" y="91.476" style="stroke: #000000"/>
    </g>
   </g>
   <g id="line2d_10">
    <path d="M 207.9 174.636 
L 182.956158 225.359387 
L 75.72158 216.220158 
L 58.212 174.636 
" clip-path="url(#p08a22d160f)" style="fill: none; stroke-dasharray: 7.4,3.2; stroke-dashoffset: 0; stroke: #000000; stroke-width: 2"/>
    <g clip-path="url(#p08a22d160f)">
     <use xlink:href="#m0ea653f03f" x="207.9" y="174.636" style="stroke: #000000"/>
     <use xlink:href="#m0ea653f03f" x="182.956158" y="225.359387" style="stroke: #000000"/>
     <use xlink:href="#m0ea653f03f" x="75.72158" y="216.220158" style="stroke: #000000"/>
     <use xlink:href="#m0ea653f03f" x="58.212" y="174.636" style="stroke: #000000"/>
    </g>
   </g>
   <g id="line2d_11">
    <path d="M 207.9 133.056 
L 156.046556 126.296424 
L 155.152279 124.468773 
L 58.212 133.056 
" clip-path="url(#p08a22d160f)" style="fill: none; stroke-dasharray: 7.4,3.2; stroke-dashoffset: 0; stroke: #000000; stroke-width: 2"/>
    <g clip-path="url(#p08a22d160f)">
     <use xlink:href="#m0ea653f03f" x="207.9" y="133.056" style="stroke: #000000"/>
     <use xlink:href="#m0ea653f03f" x="156.046556" y="126.296424" style="stroke: #000000"/>
     <use xlink:href="#m0ea653f03f" x="155.152279" y="124.468773" style="stroke: #000000"/>
     <use xlink:href="#m0ea653f03f" x="58.212" y="133.056" style="stroke: #000000"/>
    </g>
   </g>
   <g id="line2d_12">
    <path d="M 207.9 91.476 
L 191.276316 81.500958 
L 58.212 91.476 
" clip-path="url(#p08a22d160f)" style="fill: none; stroke-dasharray: 7.4,3.2; stroke-dashoffset: 0; stroke: #000000; stroke-width: 2"/>
    <g clip-path="url(#p08a22d160f)">
     <use xlink:href="#m0ea653f03f" x="207.9" y="91.476" style="stroke: #000000"/>
     <use xlink:href="#m0ea653f03f" x="191.276316" y="81.500958" style="stroke: #000000"/>
     <use xlink:href="#m0ea653f03f" x="58.212" y="91.476" style="stroke: #000000"/>
    </g>
   </g>
  </g>
 </g>
 <defs>
  <clipPath id="p08a22d160f">
   <rect x="0" y="-0" width="266.112" height="266.112"/>
  </clipPath>
 </defs>
</svg>
